<svg width="662" height="560" viewBox="0 0 662 560" fill="none" xmlns="http://www.w3.org/2000/svg">
<path fill-rule="evenodd" clip-rule="evenodd" d="M548.131 272C510.798 272 482.664 262.267 463.731 242.8C444.798 223.067 435.331 192.267 435.331 150.4V0H492.531V151.2C492.531 174.133 497.064 190.8 506.131 201.2C515.198 211.6 529.331 216.8 548.531 216.8C568.264 216.8 582.398 211.6 590.931 201.2C599.731 190.8 604.131 174.133 604.131 151.2V0H661.331V150.4C661.331 192.267 651.998 223.067 633.331 242.8C614.664 262.267 586.264 272 548.131 272ZM78.5996 459.6H57.7996V560H0.599609V292H22.9996H57.7996H125C144.2 292 161.4 295.067 176.6 301.2C191.8 307.067 203.666 316.267 212.2 328.8C221 341.067 225.4 356.667 225.4 375.6C225.4 394 221 409.067 212.2 420.8C203.666 432.267 192.066 440.667 177.4 446C168.754 449.202 159.435 451.395 149.444 452.578C153.424 453.675 157.01 455.082 160.2 456.8C167.4 460.267 173.533 464.8 178.6 470.4C183.666 476 188.6 482.667 193.4 490.4L235.8 560H169.8L124.6 484C119.266 475.2 113.133 468.933 106.2 465.2C99.5329 461.467 90.3329 459.6 78.5996 459.6ZM57.7996 342.8H123C131.266 342.8 138.6 344 145 346.4C151.4 348.533 156.333 352.267 159.8 357.6C163.533 362.933 165.4 369.867 165.4 378.4C165.4 386.933 163.533 393.733 159.8 398.8C156.333 403.867 151.4 407.6 145 410C138.6 412.4 131.266 413.6 123 413.6H57.7996V342.8ZM319.631 459.6H298.831V560H241.631V292H264.031H298.831H366.031C385.231 292 402.431 295.067 417.631 301.2C432.831 307.067 444.698 316.267 453.231 328.8C462.031 341.067 466.431 356.667 466.431 375.6C466.431 394 462.031 409.067 453.231 420.8C444.698 432.267 433.098 440.667 418.431 446C409.785 449.202 400.467 451.395 390.475 452.578C394.456 453.675 398.041 455.082 401.231 456.8C408.431 460.267 414.564 464.8 419.631 470.4C424.698 476 429.631 482.667 434.431 490.4L476.831 560H410.831L365.631 484C360.298 475.2 354.164 468.933 347.231 465.2C340.564 461.467 331.364 459.6 319.631 459.6ZM298.831 342.8H364.031C372.298 342.8 379.631 344 386.031 346.4C392.431 348.533 397.364 352.267 400.831 357.6C404.564 362.933 406.431 369.867 406.431 378.4C406.431 386.933 404.564 393.733 400.831 398.8C397.364 403.867 392.431 407.6 386.031 410C379.631 412.4 372.298 413.6 364.031 413.6H298.831V342.8ZM243.193 268H263.193H300.393H434.393V217.2H300.393V0H243.193V268ZM130.6 268H57.7996H26.1996H0.599609V0H26.1996H57.7996H132.2C151.933 0 167.8 3.06667 179.8 9.2C192.066 15.0667 201 23.2 206.6 33.6C212.2 44 215 55.4667 215 68C215 79.4667 212.6 89.2 207.8 97.2C203.266 104.933 197.133 111.2 189.4 116C181.666 120.533 172.866 124 163 126.4C153.133 128.533 143 129.867 132.6 130.4C155.266 131.2 173.266 134.533 186.6 140.4C200.2 146.267 209.933 154.267 215.8 164.4C221.666 174.267 224.6 185.467 224.6 198C224.6 214.8 220.733 228.267 213 238.4C205.266 248.533 194.333 256 180.2 260.8C166.066 265.6 149.533 268 130.6 268ZM122.2 217.2H57.7996V154.4H123C132.066 154.4 139.8 155.6 146.2 158C152.6 160.133 157.4 163.467 160.6 168C164.066 172.533 165.8 178.4 165.8 185.6C165.8 196.533 162.333 204.533 155.4 209.6C148.466 214.667 137.4 217.2 122.2 217.2ZM117.8 108.4H57.7996V50.8H117C124.733 50.8 131.4 51.7333 137 53.6C142.6 55.4667 146.866 58.5333 149.8 62.8C153 66.8 154.6 72.5333 154.6 80C154.6 86.9333 153 92.5333 149.8 96.8C146.866 100.8 142.6 103.733 137 105.6C131.666 107.467 125.266 108.4 117.8 108.4ZM521.974 312.076H502.496V348.692H512.515V334.503H515.658L524.974 348.692H536.214L526.387 333.93C532.294 332.624 535.247 329.086 535.247 323.315C535.247 315.822 530.823 312.076 521.974 312.076ZM521.16 326.824H512.515V319.755H520.906C523.856 319.755 525.33 320.941 525.33 323.315C525.33 325.654 523.94 326.824 521.16 326.824ZM498.122 363.44C504.056 366.627 510.921 368.221 518.719 368.221C526.551 368.221 533.416 366.627 539.316 363.44C545.249 360.253 549.86 355.829 553.149 350.167C556.471 344.471 558.133 337.876 558.133 330.384C558.133 322.891 556.471 316.314 553.149 310.652C549.86 304.956 545.249 300.514 539.316 297.327C533.416 294.14 526.551 292.547 518.719 292.547C510.921 292.547 504.056 294.14 498.122 297.327C492.223 300.514 487.612 304.956 484.29 310.652C480.967 316.314 479.306 322.891 479.306 330.384C479.306 337.876 480.967 344.471 484.29 350.167C487.612 355.829 492.223 360.253 498.122 363.44ZM534.434 356.727C529.924 359.236 524.686 360.49 518.719 360.49C512.786 360.49 507.565 359.219 503.055 356.676C498.546 354.133 495.02 350.607 492.477 346.098C489.935 341.589 488.663 336.351 488.663 330.384C488.663 324.417 489.918 319.178 492.427 314.669C494.969 310.126 498.495 306.6 503.005 304.091C507.548 301.548 512.786 300.277 518.719 300.277C524.686 300.277 529.924 301.548 534.434 304.091C538.943 306.6 542.469 310.126 545.012 314.669C547.554 319.178 548.826 324.417 548.826 330.384C548.826 336.351 547.554 341.606 545.012 346.149C542.469 350.658 538.943 354.184 534.434 356.727Z" fill="white"/>
</svg>
