<svg width="141" height="32" viewBox="0 0 141 32" fill="none" xmlns="http://www.w3.org/2000/svg">
<path d="M57.7449 31.6927C53.944 31.6927 51.0797 30.7017 49.152 28.7198C47.2244 26.7107 46.2606 23.5749 46.2606 19.3124V4H52.0842V19.3939C52.0842 21.7288 52.5457 23.4256 53.4688 24.4844C54.3919 25.5433 55.8309 26.0727 57.7856 26.0727C59.7947 26.0727 61.2337 25.5433 62.1024 24.4844C62.9984 23.4256 63.4463 21.7288 63.4463 19.3939V4H69.27V19.3124C69.27 23.5749 68.3197 26.7107 66.4192 28.7198C64.5188 30.7017 61.6273 31.6927 57.7449 31.6927Z" fill="white"/>
<path d="M31.5224 31.2854H25.6988V4H31.5224V31.2854ZM45.1651 31.2854H27.735V26.1134H45.1651V31.2854Z" fill="white"/>
<path d="M13.2355 31.2854H2.60637V26.1134H12.3803C13.9278 26.1134 15.0545 25.8555 15.7604 25.3397C16.4663 24.8238 16.8192 24.0093 16.8192 22.8962C16.8192 22.1631 16.6428 21.5659 16.2898 21.1043C15.964 20.6428 15.4753 20.3034 14.8237 20.0862C14.1721 19.8418 13.3848 19.7197 12.4617 19.7197H2.60637V15.0364H11.9323C12.6925 15.0364 13.3441 14.9413 13.8871 14.7513C14.4572 14.5612 14.8916 14.2626 15.1903 13.8553C15.516 13.4209 15.6789 12.8508 15.6789 12.1449C15.6789 11.3847 15.516 10.801 15.1903 10.3938C14.8916 9.95936 14.4572 9.64714 13.8871 9.45709C13.3169 9.26704 12.6382 9.17202 11.8508 9.17202H2.60637V4H13.3984C15.4075 4 17.0229 4.31222 18.2446 4.93666C19.4935 5.53396 20.403 6.36202 20.9731 7.42086C21.5433 8.4797 21.8284 9.64714 21.8284 10.9232C21.8284 12.0906 21.584 13.0816 21.0953 13.8961C20.6338 14.6834 20.0093 15.3214 19.222 15.8101C18.4346 16.2717 17.5387 16.6246 16.5342 16.869C15.5296 17.0862 14.4979 17.2219 13.4391 17.2762C15.7468 17.3576 17.5794 17.697 18.9369 18.2943C20.3215 18.8916 21.3125 19.7061 21.9098 20.7378C22.5071 21.7423 22.8057 22.8826 22.8057 24.1586C22.8057 25.8691 22.4121 27.2401 21.6247 28.2718C20.8374 29.3035 19.7243 30.0637 18.2853 30.5524C16.8464 31.0411 15.1631 31.2854 13.2355 31.2854ZM5.82361 31.2854H0V4H5.82361V31.2854Z" fill="white"/>
<path d="M128.688 11.5753V4.12914H132.649C134.449 4.12914 135.348 4.891 135.348 6.41471C135.348 7.93153 134.345 8.68993 132.339 8.68993H130.726V11.5753H128.688ZM133.259 11.5753L131.005 8.14181H133.259L135.545 11.5753H133.259ZM130.726 7.1283H132.484C133.049 7.1283 133.332 6.89044 133.332 6.41471C133.332 5.93208 133.032 5.69077 132.432 5.69077H130.726V7.1283ZM131.987 15.5466C130.402 15.5466 129.005 15.2226 127.799 14.5745C126.599 13.9264 125.661 13.0267 124.986 11.8752C124.31 10.717 123.972 9.37595 123.972 7.85224C123.972 6.32853 124.31 4.99097 124.986 3.83957C125.661 2.68127 126.599 1.77807 127.799 1.12998C129.005 0.481884 130.402 0.157837 131.987 0.157837C133.58 0.157837 134.976 0.481884 136.176 1.12998C137.382 1.77807 138.32 2.68127 138.989 3.83957C139.664 4.99097 140.002 6.32853 140.002 7.85224C140.002 9.37595 139.664 10.717 138.989 11.8752C138.32 13.0267 137.382 13.9264 136.176 14.5745C134.976 15.2226 133.58 15.5466 131.987 15.5466ZM131.987 13.9747C133.201 13.9747 134.266 13.7196 135.183 13.2094C136.1 12.6923 136.817 11.9752 137.334 11.0582C137.851 10.1344 138.11 9.06569 138.11 7.85224C138.11 6.63878 137.851 5.57356 137.334 4.65658C136.817 3.7327 136.1 3.01566 135.183 2.50546C134.266 1.98836 133.201 1.72981 131.987 1.72981C130.781 1.72981 129.716 1.98836 128.792 2.50546C127.875 3.01566 127.158 3.7327 126.641 4.65658C126.13 5.57356 125.875 6.63878 125.875 7.85224C125.875 9.06569 126.134 10.1309 126.651 11.0479C127.168 11.9649 127.885 12.6819 128.802 13.199C129.719 13.7161 130.781 13.9747 131.987 13.9747Z" fill="white"/>
<path d="M111.455 21.0636H100.704V16.3803H110.885C111.726 16.3803 112.473 16.2581 113.125 16.0137C113.776 15.7694 114.278 15.3893 114.631 14.8735C115.012 14.3576 115.202 13.6653 115.202 12.7965C115.202 11.9277 115.012 11.2218 114.631 10.6788C114.278 10.1358 113.776 9.75573 113.125 9.53854C112.473 9.29419 111.726 9.17202 110.885 9.17202H100.704V4H111.088C113.043 4 114.794 4.31222 116.342 4.93666C117.889 5.53396 119.098 6.47062 119.966 7.74666C120.862 8.99554 121.31 10.5838 121.31 12.5114C121.31 14.3848 120.862 15.9187 119.966 17.1133C119.098 18.2807 117.917 19.136 116.423 19.6789C114.957 20.2219 113.301 20.4799 111.455 20.4527V21.0636ZM104.247 31.2854H98.4231V4H104.247V31.2854ZM122.369 31.2854H115.65L111.048 23.5478C110.505 22.6518 109.88 22.0138 109.174 21.6337C108.496 21.2536 107.559 21.0636 106.364 21.0636L111.984 20.0862C113.07 20.1676 113.966 20.3984 114.672 20.7785C115.405 21.1315 116.03 21.593 116.545 22.1631C117.061 22.7333 117.564 23.412 118.052 24.1994L122.369 31.2854Z" fill="white"/>
<path d="M85.9152 21.0636H75.1639V16.3803H85.3451C86.1867 16.3803 86.9333 16.2581 87.5849 16.0137C88.2365 15.7694 88.7388 15.3893 89.0917 14.8735C89.4718 14.3576 89.6619 13.6653 89.6619 12.7965C89.6619 11.9277 89.4718 11.2218 89.0917 10.6788C88.7388 10.1358 88.2365 9.75573 87.5849 9.53854C86.9333 9.29419 86.1867 9.17202 85.3451 9.17202H75.1639V4H85.5487C87.5035 4 89.2546 4.31222 90.8022 4.93666C92.3497 5.53396 93.5579 6.47062 94.4266 7.74666C95.3226 8.99554 95.7706 10.5838 95.7706 12.5114C95.7706 14.3848 95.3226 15.9187 94.4266 17.1133C93.5579 18.2807 92.3768 19.136 90.8836 19.6789C89.4175 20.2219 87.7614 20.4799 85.9152 20.4527V21.0636ZM78.707 31.2854H72.8834V4H78.707V31.2854ZM96.8294 31.2854H90.1098L85.508 23.5478C84.965 22.6518 84.3405 22.0138 83.6346 21.6337C82.9559 21.2536 82.0192 21.0636 80.8246 21.0636L86.4446 20.0862C87.5306 20.1676 88.4266 20.3984 89.1325 20.7785C89.8655 21.1315 90.4899 21.593 91.0058 22.1631C91.5216 22.7333 92.0239 23.412 92.5126 24.1994L96.8294 31.2854Z" fill="white"/>
</svg>
